<svg width="71" height="71" viewBox="0 0 71 71" fill="none" xmlns="http://www.w3.org/2000/svg">
<rect width="71" height="71" rx="35.5" fill="white"/>
<rect x="6" y="6" width="59" height="59" rx="29.5" stroke="#081351" stroke-width="4"/>
<path d="M19.4691 26.896V44.824C19.4691 44.992 19.5651 45.1 19.7571 45.148C20.5251 45.268 21.2451 45.328 21.9171 45.328C24.7251 45.328 26.7891 44.572 28.1091 43.06C29.4291 41.524 30.0891 39.004 30.0891 35.5C30.0891 32.356 29.4171 30.052 28.0731 28.588C26.7291 27.124 24.6771 26.392 21.9171 26.392C21.2451 26.392 20.5251 26.452 19.7571 26.572C19.5651 26.62 19.4691 26.728 19.4691 26.896ZM16.5171 49.108C15.9171 49.036 15.4251 48.784 15.0411 48.352C14.6571 47.896 14.4651 47.368 14.4651 46.768V24.952C14.4651 24.352 14.6571 23.836 15.0411 23.404C15.4251 22.948 15.9171 22.684 16.5171 22.612C18.0531 22.444 19.7691 22.36 21.6651 22.36C25.9371 22.36 29.2011 23.476 31.4571 25.708C33.7371 27.94 34.8771 31.204 34.8771 35.5C34.8771 40.108 33.7371 43.576 31.4571 45.904C29.2011 48.208 25.9371 49.36 21.6651 49.36C19.7691 49.36 18.0531 49.276 16.5171 49.108Z" fill="#FF671F"/>
<path d="M43.9018 37.336V44.896C43.9018 45.088 44.0098 45.208 44.2258 45.256C45.0658 45.376 45.8578 45.436 46.6018 45.436C48.5938 45.436 50.0458 45.076 50.9578 44.356C51.8938 43.612 52.3618 42.484 52.3618 40.972C52.3618 39.628 51.8218 38.644 50.7418 38.02C49.6858 37.372 47.9218 37.048 45.4498 37.048H44.1898C43.9978 37.048 43.9018 37.144 43.9018 37.336ZM43.9018 26.824V32.98C43.9018 33.196 43.9978 33.304 44.1898 33.304H45.2338C47.4658 33.304 49.0738 33.004 50.0578 32.404C51.0658 31.78 51.5698 30.868 51.5698 29.668C51.5698 28.516 51.1618 27.664 50.3458 27.112C49.5298 26.56 48.1978 26.284 46.3498 26.284C45.5098 26.284 44.7898 26.332 44.1898 26.428C43.9978 26.476 43.9018 26.608 43.9018 26.824ZM40.9498 49.072C40.3738 49.024 39.8938 48.784 39.5098 48.352C39.1258 47.896 38.9338 47.368 38.9338 46.768V24.952C38.9338 24.352 39.1258 23.836 39.5098 23.404C39.8938 22.948 40.3858 22.696 40.9858 22.648C42.7618 22.456 44.4778 22.36 46.1338 22.36C52.8538 22.36 56.2138 24.556 56.2138 28.948C56.2138 30.412 55.7218 31.684 54.7378 32.764C53.7538 33.844 52.4578 34.54 50.8498 34.852C50.8258 34.852 50.8138 34.864 50.8138 34.888C50.8138 34.936 50.8258 34.96 50.8498 34.96C52.8178 35.248 54.3538 35.98 55.4578 37.156C56.5858 38.308 57.1498 39.736 57.1498 41.44C57.1498 44.08 56.2858 46.06 54.5578 47.38C52.8298 48.7 50.1418 49.36 46.4938 49.36C44.6698 49.36 42.8218 49.264 40.9498 49.072Z" fill="#046A38"/>
</svg>
